<?xml version="1.0" encoding="UTF-8"?>
<svg width="1000" height="1000" viewBox="0 0 1000 1000" fill="none" xmlns="http://www.w3.org/2000/svg">
  <g transform="translate(200, 100)">
    <!-- Brain and Gear Icon -->
    <path d="M300 100 C300 44.77 344.77 0 400 0 C455.23 0 500 44.77 500 100 C500 155.23 455.23 200 400 200 C344.77 200 300 155.23 300 100Z" stroke="black" stroke-width="30" fill="none"/>
    <path d="M400 0 C400 0 350 50 300 100 C250 150 200 200 200 200" stroke="black" stroke-width="30" fill="none"/>
    <path d="M400 0 C400 0 450 50 500 100 C550 150 600 200 600 200" stroke="black" stroke-width="30" fill="none"/>
  </g>
  <!-- NEO CODE Text -->
  <text x="50%" y="80%" text-anchor="middle" font-family="Arial Black" font-size="150" font-weight="bold">
    <tspan fill="#2d5075">NEO</tspan>
    <tspan fill="#7f6fea">CODE</tspan>
  </text>
</svg> 